<?xml version="1.0" encoding="utf-8"?>
<!-- Generator: Adobe Illustrator 19.0.0, SVG Export Plug-In . SVG Version: 6.00 Build 0)  -->
<svg version="1.1" id="Calque_1" xmlns="http://www.w3.org/2000/svg" xmlns:xlink="http://www.w3.org/1999/xlink" x="0px" y="0px"
	 viewBox="-207 330.9 180 180" style="enable-background:new -207 330.9 180 180;" xml:space="preserve">
<style type="text/css">
	.st0{fill:#FFC107;}
</style>
<g id="XMLID_10_">
	<g id="XMLID_103_">
		<path id="XMLID_104_" class="st0" d="M-36.4,412.7c2.6,0,5-1.1,6.7-2.8c1.7-1.7,2.8-4.1,2.8-6.7c0-5.2-4.3-9.4-9.4-9.4h-18.4
			v-16.2h18.4c2.6,0,5-1.1,6.7-2.8c1.7-1.7,2.8-4.1,2.8-6.7c0-5.2-4.3-9.4-9.4-9.4h-18.4v-18.4c0-2.6-1.1-5-2.8-6.7
			c-1.7-1.7-4.1-2.8-6.7-2.8c-5.2,0-9.4,4.3-9.4,9.4v18.4H-90v-18.3c0-2.6-1.1-5-2.8-6.7c-1.7-1.7-4.1-2.8-6.7-2.8
			c-5.2,0-9.4,4.3-9.4,9.4v18.4h-16.3v-18.3c0-2.6-1.1-5-2.8-6.7c-1.6-1.6-4-2.7-6.6-2.7c-5.2,0-9.4,4.3-9.4,9.4v18.4h-16.3v-18.4
			c0-2.6-1.1-5-2.8-6.7c-1.7-1.6-4.1-2.7-6.7-2.7c-5.2,0-9.4,4.3-9.4,9.4v18.4h-18.4c-2.6,0-5,1.1-6.7,2.8c-1.6,1.7-2.7,4-2.7,6.6
			c0,5.2,4.3,9.4,9.4,9.4h18.4v16.4h-18.4c-2.6,0-5,1.1-6.7,2.8c-1.6,1.7-2.7,4-2.7,6.6c0,5.2,4.3,9.4,9.4,9.4h18.4V429h-18.4
			c-2.6,0-5,1.1-6.7,2.8c-1.6,1.7-2.7,4.1-2.7,6.7c0,5.2,4.3,9.4,9.4,9.4h18.4v16.3h-18.4c-2.6,0-5,1.1-6.7,2.8
			c-1.7,1.7-2.8,4.1-2.8,6.7c0,5.2,4.3,9.4,9.4,9.4h18.4v18.4c0,2.6,1.1,5,2.8,6.7c1.7,1.7,4.1,2.8,6.7,2.8c5.2,0,9.4-4.3,9.4-9.4
			v-18.4h16.4v18.4c0,2.6,1.1,5,2.8,6.7c1.7,1.7,4.1,2.8,6.7,2.8c5.2,0,9.4-4.3,9.4-9.4v-18.4h16.3v18.4c0,2.6,1.1,5,2.8,6.7
			c1.7,1.7,4.1,2.8,6.7,2.8c5.2,0,9.4-4.3,9.4-9.4v-18.4h16.3v18.4c0,2.6,1.1,5,2.8,6.7c1.7,1.7,4.1,2.8,6.7,2.8
			c5.2,0,9.4-4.3,9.4-9.4v-18.4h18.4c2.6,0,5-1.1,6.7-2.8c1.7-1.7,2.8-4.1,2.8-6.7c0-5.2-4.3-9.4-9.4-9.4h-18.4v-16.7h18.4
			c2.6,0,5-1.1,6.7-2.8c1.7-1.7,2.8-4.1,2.8-6.7c0-5.2-4.3-9.4-9.4-9.4h-18.4v-16.3H-36.4z M-144,464.2h-16.3v-16.3h16.3V464.2z
			 M-144,429h-16.3v-16.3h16.3V429z M-144,393.9h-16.3v-16.3h16.3V393.9z M-108.8,464.2h-16.4v-16.3h16.3L-108.8,464.2L-108.8,464.2
			z M-108.8,429h-16.4v-16.3h16.3L-108.8,429L-108.8,429z M-108.8,393.9h-16.4v-16.3h16.3L-108.8,393.9L-108.8,393.9z M-90,377.6
			h16.3v16.3H-90V377.6z M-73.7,464.2H-90v-16.3h16.3V464.2z M-73.7,429H-90v-16.3h16.3V429z"/>
	</g>
</g>
</svg>
