<?xml version="1.0" encoding="utf-8"?>
<!-- Generator: Adobe Illustrator 19.0.0, SVG Export Plug-In . SVG Version: 6.00 Build 0)  -->
<svg version="1.1" id="Calque_1" xmlns="http://www.w3.org/2000/svg" xmlns:xlink="http://www.w3.org/1999/xlink" x="0px" y="0px"
	 viewBox="0 0 180 180" style="enable-background:new 0 0 180 180;" xml:space="preserve">
<style type="text/css">
	.st0{fill:#FFC107;}
	.st1{fill:#010101;}
</style>
<path id="XMLID_1_" class="st0" d="M166.6,180H13.4C6,180,0,174,0,166.6V13.4C0,6,6,0,13.4,0h153.1C174,0,180,6,180,13.4v153.1
	C180,174,174,180,166.6,180z"/>
<path id="XMLID_7_" d="M90,90"/>
<g id="XMLID_9_">
	<path id="XMLID_14_" class="st1" d="M116.4,31.1H63.6c-17.9,0-32.5,14.6-32.5,32.5v52.8c0,17.9,14.6,32.5,32.5,32.5h52.8
		c17.9,0,32.5-14.6,32.5-32.5V63.6C148.9,45.7,134.3,31.1,116.4,31.1z M138.5,116.4c0,12.2-9.9,22.1-22.1,22.1H63.6
		c-12.2,0-22.1-9.9-22.1-22.1V63.6c0-12.2,9.9-22.1,22.1-22.1h52.8c12.2,0,22.1,9.9,22.1,22.1V116.4L138.5,116.4z"/>
	<path id="XMLID_11_" class="st1" d="M90,59.6c-16.7,0-30.4,13.6-30.4,30.4c0,16.7,13.6,30.4,30.4,30.4s30.4-13.6,30.4-30.4
		C120.4,73.3,106.7,59.6,90,59.6z M90,109.9c-11,0-19.9-8.9-19.9-19.9S79,70.1,90,70.1S109.9,79,109.9,90S101,109.9,90,109.9z"/>
	<path id="XMLID_2_" class="st1" d="M121.6,50.8c-2,0-4,0.8-5.4,2.2s-2.3,3.4-2.3,5.4s0.8,4,2.3,5.4c1.4,1.4,3.4,2.2,5.4,2.2
		s4-0.8,5.4-2.2c1.4-1.4,2.2-3.4,2.2-5.4s-0.8-4-2.2-5.4C125.6,51.6,123.7,50.8,121.6,50.8z"/>
</g>
</svg>
