<?xml version="1.0" encoding="utf-8"?>
<!-- Generator: Adobe Illustrator 19.0.0, SVG Export Plug-In . SVG Version: 6.00 Build 0)  -->
<svg version="1.1" id="Calque_1" xmlns="http://www.w3.org/2000/svg" xmlns:xlink="http://www.w3.org/1999/xlink" x="0px" y="0px"
	 viewBox="-207 330.9 180 180" style="enable-background:new -207 330.9 180 180;" xml:space="preserve">
<style type="text/css">
	.st0{fill:#FFC107;}
</style>
<path id="XMLID_2_" class="st0" d="M-139.7,330.9v169c0,6.1-5,11-11,11h-5.1c-6.1,0-11-5-11-11v-51H-207v-118H-139.7z M-157.4,341.4
	c-4.3,0-7.8,3.5-7.8,7.8s3.5,7.8,7.8,7.8c4.3,0,7.8-3.5,7.8-7.8S-153.1,341.4-157.4,341.4z"/>
<path id="XMLID_14_" class="st0" d="M-82.5,330.9v169c0,6.1-5,11-11,11h-5.1c-6.1,0-11-5-11-11v-51h-14.6
	C-124.2,355.8-82.5,330.9-82.5,330.9z"/>
<g id="XMLID_3_">
	<path id="XMLID_18_" class="st0" d="M-42.3,427.5v14.7c5.5,0.6,9.9,5.4,9.9,11.1v46.4c0,6.1-5,11.2-11.2,11.2h-4.8
		c-6.1,0-11.2-5-11.2-11.2v-46.4c0-5.7,4.3-10.4,9.9-11.1v-14.7c-8.7-1.7-15.3-9.4-15.3-18.6v-59c0-10.5,8.5-19,19-19
		c5.2,0,10,2.1,13.4,5.6c3.5,3.4,5.6,8.2,5.6,13.4v59C-27,418.1-33.6,425.8-42.3,427.5z"/>
</g>
</svg>
