<?xml version="1.0" encoding="utf-8"?>
<!-- Generator: Adobe Illustrator 19.0.0, SVG Export Plug-In . SVG Version: 6.00 Build 0)  -->
<svg version="1.1" id="Calque_1" xmlns="http://www.w3.org/2000/svg" xmlns:xlink="http://www.w3.org/1999/xlink" x="0px" y="0px"
	 viewBox="-207 330.9 180 180" style="enable-background:new -207 330.9 180 180;" xml:space="preserve">
<style type="text/css">
	.st0{fill:#FFC107;}
	.st1{fill:#010101;}
</style>
<path id="XMLID_1_" class="st0" d="M-40.4,510.9h-153.2c-7.4,0-13.4-6-13.4-13.4V344.3c0-7.4,6-13.4,13.4-13.4h153.1
	c7.5,0,13.5,6,13.5,13.4v153.1C-27,504.9-33,510.9-40.4,510.9z"/>
<path id="XMLID_7_" d="M-117,420.9"/>
<g id="XMLID_6_">
	<path id="LinkedIn" class="st1" d="M-59.9,433.2v42.2h-24.5V436c0-9.9-3.5-16.7-12.4-16.7c-6.8,0-10.8,4.6-12.6,9
		c-0.6,1.6-0.8,3.8-0.8,6v41.1h-24.4c0,0,0.3-66.8,0-73.7h24.5v10.4c0,0.1-0.1,0.2-0.2,0.2h0.2v-0.2c3.3-5,9.1-12.2,22.1-12.2
		C-72,400.1-59.9,410.6-59.9,433.2z M-160.3,366.3c-8.4,0-13.9,5.5-13.9,12.7c0,7.1,5.3,12.7,13.5,12.7h0.2
		c8.5,0,13.9-5.7,13.9-12.7C-146.7,371.8-151.9,366.3-160.3,366.3z M-172.7,475.5h24.5v-73.7h-24.5V475.5z"/>
</g>
</svg>
