<?xml version="1.0" encoding="utf-8"?>
<!-- Generator: Adobe Illustrator 19.0.0, SVG Export Plug-In . SVG Version: 6.00 Build 0)  -->
<svg version="1.1" id="Calque_1" xmlns="http://www.w3.org/2000/svg" xmlns:xlink="http://www.w3.org/1999/xlink" x="0px" y="0px"
	 viewBox="-207 330.9 180 180" style="enable-background:new -207 330.9 180 180;" xml:space="preserve">
<style type="text/css">
	.st0{fill:#FFC107;}
</style>
<path id="XMLID_2_" class="st0" d="M-27,389.9v115.4c0,3.1-2.4,5.6-5.4,5.6h-169.2c-3,0-5.4-2.5-5.4-5.6V389.9H-27z M-42.9,408.5
	h-148.2v83.9h148.3L-42.9,408.5L-42.9,408.5z"/>
<path id="XMLID_8_" class="st0" d="M-207,377.2v-41.4c0-2.7,2.4-4.9,5.4-4.9h169.2c3,0,5.4,2.2,5.4,4.9v41.4
	C-27,377.2-207,377.2-207,377.2z M-184.5,346.2c-3.7,0-6.6,3-6.6,6.6s3,6.6,6.6,6.6s6.6-3,6.6-6.6S-180.8,346.2-184.5,346.2z
	 M-150.7,346.2c-3.7,0-6.6,3-6.6,6.6s3,6.6,6.6,6.6c3.6,0,6.6-3,6.6-6.6S-147.1,346.2-150.7,346.2z M-117,346.2
	c-3.7,0-6.6,3-6.6,6.6s3,6.6,6.6,6.6s6.6-3,6.6-6.6S-113.3,346.2-117,346.2z M-83.2,346.2c-3.7,0-6.6,3-6.6,6.6s3,6.6,6.6,6.6
	s6.6-3,6.6-6.6S-79.6,346.2-83.2,346.2z M-49.5,346.2c-3.7,0-6.6,3-6.6,6.6s3,6.6,6.6,6.6s6.6-3,6.6-6.6S-45.8,346.2-49.5,346.2z"/>
<g id="XMLID_9_">
	<polygon id="XMLID_42_" class="st0" points="-51.2,416.8 -60,416.8 -104.1,484 -51.2,484 	"/>
	<polygon id="XMLID_43_" class="st0" points="-98.1,416.8 -127.2,461.3 -132.5,457.8 -105.6,416.8 -131.7,416.8 -147.2,440.4 
		-152.5,436.9 -139.3,416.8 -182.8,416.8 -182.8,484 -111.6,484 -67.6,416.8 	"/>
</g>
</svg>
