<?xml version="1.0" encoding="utf-8"?>
<!-- Generator: Adobe Illustrator 19.0.0, SVG Export Plug-In . SVG Version: 6.00 Build 0)  -->
<svg version="1.1" id="Calque_1" xmlns="http://www.w3.org/2000/svg" xmlns:xlink="http://www.w3.org/1999/xlink" x="0px" y="0px"
	 viewBox="0 0 180 180" style="enable-background:new 0 0 180 180;" xml:space="preserve">
<style type="text/css">
	.st0{fill:#FFC107;}
	.st1{fill:#040305;}
</style>
<path id="XMLID_1_" class="st0" d="M166.6,180H13.4C6,180,0,174,0,166.6V13.4C0,6,6,0,13.4,0h153.1C174,0,180,6,180,13.4v153.1
	C180,174,174,180,166.6,180z"/>
<path id="XMLID_7_" d="M90,90"/>
<g id="XMLID_4_">
	<g id="XMLID_5_">
		<path id="XMLID_2_" class="st1" d="M155.5,49.4c-4.8,2.1-10,3.6-15.4,4.2c5.6-3.3,9.8-8.6,11.8-14.9c-5.2,3.1-11,5.3-17.1,6.5
			c-4.9-5.2-11.9-8.5-19.6-8.5c-14.8,0-26.9,12-26.9,26.9c0,2.1,0.2,4.2,0.7,6.1c-22.3-1-42.1-11.7-55.4-28c-2.3,4-3.6,8.6-3.6,13.5
			c0,9.3,4.7,17.6,12,22.4c-4.4-0.1-8.5-1.4-12.2-3.4v0.3c0,13,9.3,23.9,21.6,26.4c-2.3,0.6-4.6,0.9-7.1,0.9c-1.7,0-3.4-0.2-5.1-0.5
			c3.4,10.7,13.3,18.5,25.1,18.7c-9.2,7.2-20.8,11.5-33.4,11.5c-2.2,0-4.3-0.1-6.4-0.4c11.9,7.6,26,12.1,41.2,12.1
			c49.4,0,76.5-40.9,76.5-76.5l-0.1-3.5C147.3,59.5,151.9,54.8,155.5,49.4z"/>
	</g>
</g>
</svg>
